<mxfile host="app.diagrams.net" modified="2020-12-25T04:11:10.240Z" agent="5.0 (Windows NT 10.0; Win64; x64) AppleWebKit/537.36 (KHTML, like Gecko) Chrome/87.0.4280.66 Safari/537.36" etag="R2xSOoZYhhvRe2HfLDXB" version="14.0.4" type="github">
  <diagram id="YDMMk9WA7gl_MHkLmr0l" name="Page-1">
    <mxGraphModel dx="655" dy="566" grid="1" gridSize="10" guides="1" tooltips="1" connect="1" arrows="1" fold="1" page="1" pageScale="1" pageWidth="827" pageHeight="1169" math="0" shadow="0">
      <root>
        <mxCell id="0" />
        <mxCell id="1" parent="0" />
        <mxCell id="OBQHHZ_qZffsU1Pib5I8-1" value="" style="shape=parallelogram;perimeter=parallelogramPerimeter;whiteSpace=wrap;html=1;fixedSize=1;size=40;" vertex="1" parent="1">
          <mxGeometry x="50" y="90" width="120" height="20" as="geometry" />
        </mxCell>
        <mxCell id="OBQHHZ_qZffsU1Pib5I8-2" value="" style="shape=parallelogram;perimeter=parallelogramPerimeter;whiteSpace=wrap;html=1;fixedSize=1;size=40;" vertex="1" parent="1">
          <mxGeometry x="60" y="50" width="100" height="20" as="geometry" />
        </mxCell>
        <mxCell id="OBQHHZ_qZffsU1Pib5I8-3" value="" style="shape=parallelogram;perimeter=parallelogramPerimeter;whiteSpace=wrap;html=1;fixedSize=1;size=40;" vertex="1" parent="1">
          <mxGeometry x="40" y="130" width="140" height="30" as="geometry" />
        </mxCell>
        <mxCell id="OBQHHZ_qZffsU1Pib5I8-6" value="" style="shape=parallelogram;perimeter=parallelogramPerimeter;whiteSpace=wrap;html=1;fixedSize=1;size=40;" vertex="1" parent="1">
          <mxGeometry x="30" y="180" width="160" height="30" as="geometry" />
        </mxCell>
      </root>
    </mxGraphModel>
  </diagram>
</mxfile>
